<?xml version="1.0" standalone="no"?><!DOCTYPE svg PUBLIC "-//W3C//DTD SVG 1.1//EN" "http://www.w3.org/Graphics/SVG/1.1/DTD/svg11.dtd"><svg width="100%" height="100%" viewBox="0 0 900 900" version="1.1" xmlns="http://www.w3.org/2000/svg" xmlns:xlink="http://www.w3.org/1999/xlink" xml:space="preserve" style="fill-rule:evenodd;clip-rule:evenodd;stroke-linejoin:round;stroke-miterlimit:1.41421;"><path d="M287.236,709.499l-40.171,0l-166.689,-627.969l41.095,0l145.449,569.327l1.846,0l52.485,-185.425c5.851,4.059 12.194,8.204 17.895,11.376c4.122,2.293 8.495,4.393 12.735,6.251l-64.645,226.44ZM652.935,709.499l-37.014,0l10.804,-18.808l6.711,-21.871l-3.54,-21.064l0.876,3.101l1.847,0l145.91,-569.327l41.095,0l-166.689,627.969ZM548.128,483.087l-80.083,-280.519c14.705,0.92 27.337,3.104 37.814,5.709l81.642,289.268c-4.698,-2.637 -10.348,-5.354 -16.764,-7.604c-9.753,-3.421 -17.391,-5.564 -22.609,-6.854ZM367.112,429.705c-4.914,-2.263 -10.065,-4.934 -14.843,-7.972c-6.042,-3.841 -11.29,-7.693 -15.524,-11.04l56.606,-199.986c10.777,-3.245 23.717,-6.133 38.449,-7.594l-64.688,226.592Z" style="fill:#fff;"/><path d="M644.961,724.816c-33.559,59.68 -106.207,93.654 -197.277,93.654c-103.892,0 -163.202,-43.599 -192.021,-93.654l47.497,0c27.376,33.028 74.513,59.023 148.68,59.023c65.67,0 117.565,-22.475 147.168,-59.023l45.953,0ZM652.469,709.499l-42.848,0c10.889,-18.588 16.757,-39.952 16.757,-63.259c0,-77.572 -51.253,-108.971 -146.372,-134.367l-82.19,-22.163c-86.346,-23.087 -143.602,-69.261 -143.602,-159.301c0,-102.507 81.267,-168.997 201.32,-168.997c122.361,0 197.163,69.261 198.087,158.839l-38.787,0c-1.847,-57.718 -47.559,-124.209 -159.762,-124.209c-100.198,0 -161.61,53.101 -161.61,133.444c0,70.184 42.481,104.353 121.438,125.593l79.42,21.702c108.509,29.552 170.844,67.414 170.844,167.151c0,24.048 -4.43,45.983 -12.695,65.567Z" style="fill:#fff;"/></svg>