<?xml version="1.0" standalone="no"?><!DOCTYPE svg PUBLIC "-//W3C//DTD SVG 1.1//EN" "http://www.w3.org/Graphics/SVG/1.1/DTD/svg11.dtd"><svg width="100%" height="100%" viewBox="0 0 4105 2134" version="1.1" xmlns="http://www.w3.org/2000/svg" xmlns:xlink="http://www.w3.org/1999/xlink" xml:space="preserve" style="fill-rule:evenodd;clip-rule:evenodd;stroke-linecap:round;stroke-linejoin:round;stroke-miterlimit:1.41421;"><g id="logo"><clipPath id="_clip1"><rect id="new logo" x="-2592.62" y="-392.57" width="8868.21" height="6036.18"/></clipPath><g clip-path="url(#_clip1)"><g id="name vertical"><text x="165.538px" y="1069.14px" style="font-family:'SFCompactDisplay-Medium';font-size:600px;fill:#ff3d3d;">Lov<tspan x="1071.11px " y="1069.14px ">e</tspan></text><text x="164.735px" y="1610.92px" style="font-family:'SFCompactDisplay-Ultralight';font-size:600px;fill:#2a2b2a;">Coach</text><text x="173.242px" y="525.594px" style="font-family:'SFCompactDisplay-Ultralight';font-size:600px;fill:#0cf;">My</text><rect x="194.889" y="1780.97" width="1577.34" height="29.147" style="fill:#ff3d3d;"/></g><g id="logo1"><path d="M1765.91,869.37l1479.4,1898.09l1199.89,-664.609l-1205.78,-1709.79l-1473.51,476.308Z" style="fill:url(#_Linear2);"/><g><path d="M2503.29,1448.11l-133.325,195.406c-213.264,-271.567 -606.535,-772.394 -608.643,-775.37c-168.425,-237.82 -26.566,-527.303 166.667,-608.334c341.245,-143.098 569.433,194.549 575.712,203.967c10.015,-14.877 237.663,-345.837 575.979,-203.967c193.233,81.031 335.092,370.514 166.667,608.334c-2.095,2.958 -390.616,497.736 -604.737,770.396l-137.201,-190.432l-1.119,0Z" style="fill:#ff3d3d;"/><clipPath id="_clip3"><path d="M2503.29,1448.11l-133.325,195.406c-213.264,-271.567 -606.535,-772.394 -608.643,-775.37c-168.425,-237.82 -26.566,-527.303 166.667,-608.334c341.245,-143.098 569.433,194.549 575.712,203.967c10.015,-14.877 237.663,-345.837 575.979,-203.967c193.233,81.031 335.092,370.514 166.667,608.334c-2.095,2.958 -390.616,497.736 -604.737,770.396l-137.201,-190.432l-1.119,0Z"/></clipPath><g clip-path="url(#_clip3)"><path d="M2502.32,458.348c0,0 -146.243,215.192 -180.975,332.373c-34.733,117.18 -34.039,236.721 20.833,369.091c54.872,132.371 161.879,295.256 161.879,295.256" style="fill:none;stroke-width:8.33px;stroke:#fff;"/></g></g><g id="shadow"><g id="left eye"><path d="M3125.21,334.812c-309.247,-197.471 -509.754,260.812 -220.833,425c288.921,164.189 530.08,-227.528 220.833,-425Z" style="fill:#585858;"/><path id="right eye" d="M3133.54,326.479c-309.247,-197.471 -509.754,260.811 -220.833,425c288.921,164.188 530.081,-227.529 220.833,-425Z" style="fill:#fff;"/><clipPath id="_clip4"><path d="M3133.54,326.479c-309.247,-197.471 -509.754,260.811 -220.833,425c288.921,164.188 530.081,-227.529 220.833,-425Z"/></clipPath><g clip-path="url(#_clip4)"><g id="pupil"><ellipse cx="2993.3" cy="435.911" rx="226.807" ry="226.637" style="fill:#606060;"/><ellipse cx="2984.05" cy="426.661" rx="212.931" ry="217.386" style="fill:#0cf;"/><ellipse cx="2956.51" cy="381.303" rx="82.89" ry="86.587" style="fill:#000;"/><ellipse cx="2866.22" cy="371.247" rx="54.555" ry="58.898" style="fill:#fff;"/></g></g></g><g id="right eye1"><path d="M1883.85,334.812c309.247,-197.471 509.754,260.812 220.833,425c-288.921,164.189 -530.081,-227.528 -220.833,-425Z" style="fill:#585858;"/><path id="right eye2" d="M1875.51,326.479c309.248,-197.471 509.755,260.811 220.834,425c-288.921,164.188 -530.081,-227.529 -220.834,-425Z" style="fill:#fff;"/><clipPath id="_clip5"><path d="M1875.51,326.479c309.248,-197.471 509.755,260.811 220.834,425c-288.921,164.188 -530.081,-227.529 -220.834,-425Z"/></clipPath><g clip-path="url(#_clip5)"><g id="pupil1"><ellipse cx="2002.43" cy="434.675" rx="226.807" ry="226.637" style="fill:#606060;"/><ellipse cx="2011.68" cy="425.424" rx="212.931" ry="217.386" style="fill:#0cf;"/><ellipse cx="2039.22" cy="380.066" rx="82.89" ry="86.587" style="fill:#000;"/><ellipse cx="2129.51" cy="370.011" rx="54.555" ry="58.898" style="fill:#fff;"/></g></g></g></g><g id="mouse"><path d="M2306.91,885.98c0,0 245.916,-94.211 244.809,12.865c-1.106,107.076 -154.633,368.749 -154.633,368.749c0,0 -47.828,-80.053 -82.056,-208.91c-17.044,-64.167 -8.12,-172.704 -8.12,-172.704Z" style="fill:#585858;"/><path d="M2304.11,886.301c0,0 234.637,-82.484 233.53,24.592c-1.107,107.076 -140.944,356.941 -140.944,356.941c0,0 -55.681,-77.525 -84.466,-208.83c-23.725,-108.222 -8.12,-172.703 -8.12,-172.703Z" style="fill:#fff;"/><clipPath id="_clip6"><path d="M2304.11,886.301c0,0 234.637,-82.484 233.53,24.592c-1.107,107.076 -140.944,356.941 -140.944,356.941c0,0 -55.681,-77.525 -84.466,-208.83c-23.725,-108.222 -8.12,-172.703 -8.12,-172.703Z"/></clipPath><g clip-path="url(#_clip6)"><g id="thongue"><path d="M2395.41,1266.7c-34.481,-64.664 -59.717,-116.138 -82.48,-198.636c0,0 50.015,-12.666 82.828,15.912c32.813,28.577 -0.348,182.724 -0.348,182.724Z" style="fill:#ff3d3d;"/><path d="M2394.49,1266.91c44.357,-79.199 69.125,-131.783 98.949,-202.858c0,0 -55.762,-9.897 -88.575,18.681c-32.814,28.577 -10.374,184.177 -10.374,184.177Z" style="fill:#ff3d3d;stroke-width:8.33px;stroke:#fff;"/></g></g></g></g></g></g><defs><linearGradient id="_Linear2" x1="0" y1="0" x2="1" y2="0" gradientUnits="userSpaceOnUse" gradientTransform="matrix(1489.82,2035.21,-2035.21,1489.82,1811.19,-285.998)"><stop offset="0%" style="stop-color:#7e7e7e;stop-opacity:1"/><stop offset="100%" style="stop-color:#b1b1b1;stop-opacity:0"/></linearGradient></defs></svg>