<?xml version="1.0" standalone="no"?><!DOCTYPE svg PUBLIC "-//W3C//DTD SVG 1.1//EN" "http://www.w3.org/Graphics/SVG/1.1/DTD/svg11.dtd"><svg width="100%" height="100%" viewBox="0 0 1234 141" version="1.1" xmlns="http://www.w3.org/2000/svg" xmlns:xlink="http://www.w3.org/1999/xlink" xml:space="preserve" style="fill-rule:evenodd;clip-rule:evenodd;stroke-linejoin:round;stroke-miterlimit:1.41421;"><path d="M9.746,99.308c0,12.202 9.628,30.713 38.017,30.713c22.661,0 38.184,-11.953 38.184,-30.63c0,-18.013 -11.04,-24.404 -31.211,-29.966l-12.451,-3.403c-15.274,-4.151 -23.741,-10.21 -23.741,-24.239c0,-15.024 11.206,-25.4 30.381,-25.4c21.416,0 29.551,12.949 29.717,22.993l4.898,0c-0.084,-14.028 -11.456,-27.392 -34.615,-27.392c-22.163,0 -35.361,12.202 -35.361,29.716c0,15.772 9.463,24.073 25.732,28.389l13.033,3.486c18.51,4.981 28.72,10.708 28.72,26.065c0,14.858 -13.198,25.981 -32.871,25.981c-25.483,0 -33.369,-16.352 -33.535,-26.313l-4.897,0Z" style="fill:#fff;fill-rule:nonzero;"/><path d="M114.003,41.866l-14.36,0l0,4.151l14.36,0l0,63.169c0,14.277 4.898,19.009 19.424,19.009c4.317,0 7.222,-0.416 9.131,-0.831l0,-3.984c-2.158,0.415 -5.395,0.747 -8.55,0.747c-10.874,0 -15.356,-2.988 -15.356,-13.364l0,-64.746l22.661,0l0,-4.151l-22.661,0l0,-20.586l-4.649,0l0,20.586Z" style="fill:#fff;fill-rule:nonzero;"/><path d="M190.371,128.859c20.669,0 29.882,-13.365 30.629,-22.662l-4.648,0c-0.747,7.803 -8.716,18.262 -25.898,18.262c-17.681,0 -29.136,-12.119 -29.136,-35.029l0,-5.064l60.928,0l0,-3.486c0,-27.06 -13.365,-40.508 -32.789,-40.508c-19.423,0 -32.788,13.448 -32.788,40.508l0,8.882c0,25.151 12.784,39.097 33.702,39.097ZM161.318,80.133l0,-0.332c0,-22.412 11.206,-35.029 28.139,-35.029c16.934,0 28.14,12.617 28.14,35.029l0,0.332l-56.279,0Z" style="fill:#fff;fill-rule:nonzero;"/><path d="M267.402,127.364l4.897,0l31.875,-85.498l-4.98,0l-29.053,79.356l-0.415,0l-29.053,-79.356l-5.146,0l31.875,85.498Z" style="fill:#fff;fill-rule:nonzero;"/><path d="M351.157,128.859c20.669,0 29.883,-13.365 30.63,-22.662l-4.649,0c-0.747,7.803 -8.716,18.262 -25.898,18.262c-17.681,0 -29.136,-12.119 -29.136,-35.029l0,-5.064l60.928,0l0,-3.486c0,-27.06 -13.365,-40.508 -32.788,-40.508c-19.424,0 -32.788,13.448 -32.788,40.508l0,8.882c0,25.151 12.783,39.097 33.701,39.097ZM322.104,80.133l0,-0.332c0,-22.412 11.206,-35.029 28.14,-35.029c16.933,0 28.139,12.617 28.139,35.029l0,0.332l-56.279,0Z" style="fill:#fff;fill-rule:nonzero;"/><path d="M407.934,127.364l4.648,0l0,-52.045c0,-15.44 9.712,-30.547 28.555,-30.547c16.021,0 24.819,11.787 24.819,26.728l0,55.864l4.649,0l0,-56.362c0,-19.673 -12.368,-30.63 -29.302,-30.63c-16.684,0 -25.732,9.878 -28.388,18.926l-0.333,0l0,-17.432l-4.648,0l0,85.498Z" style="fill:#fff;fill-rule:nonzero;"/><path d="M560.668,127.364l30.63,-105.336l0.415,0l30.63,105.336l5.728,0l29.551,-112.724l-5.064,0l-27.31,106.333l-0.332,0l-30.878,-106.333l-5.064,0l-30.879,106.333l-0.332,0l-27.309,-106.333l-5.064,0l29.551,112.724l5.727,0Z" style="fill:#fff;fill-rule:nonzero;"/><path d="M724.692,112.589l0.332,0l0,14.775l4.648,0l0,-61.84c0,-16.353 -11.206,-25.152 -28.388,-25.152c-17.847,0 -26.812,9.214 -28.472,22.08l4.648,0c2.159,-11.04 8.882,-17.68 23.492,-17.68c14.194,0 24.072,6.723 24.072,21.997l0,13.198l-27.31,0c-19.091,0 -28.803,9.629 -28.803,23.574c0,15.772 11.372,25.318 27.973,25.318c17.764,0 26.314,-11.289 27.808,-16.27ZM696.967,124.459c-13.613,0 -22.993,-8.218 -22.993,-21.001c0,-11.206 7.388,-19.092 23.74,-19.092l27.31,0l0,14.195c0,15.688 -13.032,25.898 -28.057,25.898Z" style="fill:#fff;fill-rule:nonzero;"/><path d="M761.464,41.866l-14.36,0l0,4.151l14.36,0l0,63.169c0,14.277 4.898,19.009 19.424,19.009c4.317,0 7.222,-0.416 9.131,-0.831l0,-3.984c-2.158,0.415 -5.396,0.747 -8.55,0.747c-10.874,0 -15.356,-2.988 -15.356,-13.364l0,-64.746l22.661,0l0,-4.151l-22.661,0l0,-20.586l-4.649,0l0,20.586Z" style="fill:#fff;fill-rule:nonzero;"/><path d="M809.111,127.364l4.648,0l0,-48.808c0,-20.669 8.882,-33.618 24.571,-33.618c3.403,0 6.557,0.581 7.304,0.747l0,-4.483c-0.913,-0.166 -2.988,-0.664 -6.723,-0.664c-16.104,0 -22.33,9.463 -24.82,19.009l-0.332,0l0,-17.681l-4.648,0l0,85.498Z" style="fill:#fff;fill-rule:nonzero;"/><path d="M893.862,128.859c20.669,0 29.883,-13.365 30.63,-22.662l-4.649,0c-0.747,7.803 -8.716,18.262 -25.898,18.262c-17.681,0 -29.136,-12.119 -29.136,-35.029l0,-5.064l60.928,0l0,-3.486c0,-27.06 -13.364,-40.508 -32.788,-40.508c-19.424,0 -32.788,13.448 -32.788,40.508l0,8.882c0,25.151 12.783,39.097 33.701,39.097ZM864.809,80.133l0,-0.332c0,-22.412 11.206,-35.029 28.14,-35.029c16.933,0 28.139,12.617 28.139,35.029l0,0.332l-56.279,0Z" style="fill:#fff;fill-rule:nonzero;"/><path d="M950.639,127.364l4.649,0l0,-54.619c0,-15.024 8.134,-27.973 24.57,-27.973c13.862,0 22.744,9.048 22.744,25.566l0,57.026l4.648,0l0,-56.362c0,-13.032 8.301,-26.23 24.571,-26.23c12.949,0 22.744,7.968 22.744,25.234l0,57.358l4.648,0l0,-58.603c0,-18.926 -11.87,-28.389 -27.309,-28.389c-17.183,0 -24.737,12.451 -25.982,18.76l-0.332,0c-2.075,-9.463 -10.293,-18.76 -25.649,-18.76c-15.938,0 -22.661,10.376 -24.321,16.768l-0.332,0l0,-15.274l-4.649,0l0,85.498Z" style="fill:#fff;fill-rule:nonzero;"/><path d="M1116.99,128.859c20.669,0 29.883,-13.365 30.63,-22.662l-4.649,0c-0.747,7.803 -8.716,18.262 -25.898,18.262c-17.681,0 -29.136,-12.119 -29.136,-35.029l0,-5.064l60.928,0l0,-3.486c0,-27.06 -13.364,-40.508 -32.788,-40.508c-19.424,0 -32.788,13.448 -32.788,40.508l0,8.882c0,25.151 12.783,39.097 33.701,39.097ZM1087.93,80.133l0,-0.332c0,-22.412 11.206,-35.029 28.14,-35.029c16.933,0 28.139,12.617 28.139,35.029l0,0.332l-56.279,0Z" style="fill:#fff;fill-rule:nonzero;"/><path d="M1163.8,127.364l58.936,0l0,-4.15l-53.042,0l0,-0.332l53.042,-76.865l0,-4.151l-58.936,0l0,4.151l53.125,0l0,0.332l-53.125,77.197l0,3.818Z" style="fill:#fff;fill-rule:nonzero;"/></svg>